<mxfile host="Electron" modified="2024-04-22T03:26:04.568Z" agent="Mozilla/5.0 (Windows NT 10.0; Win64; x64) AppleWebKit/537.36 (KHTML, like Gecko) draw.io/24.2.5 Chrome/120.0.6099.109 Electron/28.1.0 Safari/537.36" etag="gfoXkpB3M4HPkNZ6j9F5" version="24.2.5" type="device">
  <diagram name="Page-1" id="Cidg7iAUaBsBqu00yiGP">
    <mxGraphModel dx="1034" dy="559" grid="1" gridSize="10" guides="1" tooltips="1" connect="1" arrows="1" fold="1" page="1" pageScale="1" pageWidth="850" pageHeight="1100" math="0" shadow="0">
      <root>
        <mxCell id="0" />
        <mxCell id="1" parent="0" />
        <mxCell id="youNXtdvEZPTi6tTRyyU-19" style="edgeStyle=orthogonalEdgeStyle;rounded=0;orthogonalLoop=1;jettySize=auto;html=1;" edge="1" parent="1" source="youNXtdvEZPTi6tTRyyU-1" target="youNXtdvEZPTi6tTRyyU-16">
          <mxGeometry relative="1" as="geometry">
            <Array as="points">
              <mxPoint x="120" y="135" />
            </Array>
          </mxGeometry>
        </mxCell>
        <mxCell id="youNXtdvEZPTi6tTRyyU-1" value="User" style="shape=umlActor;verticalLabelPosition=bottom;verticalAlign=top;html=1;" vertex="1" parent="1">
          <mxGeometry x="130" y="105" width="30" height="60" as="geometry" />
        </mxCell>
        <mxCell id="youNXtdvEZPTi6tTRyyU-20" style="edgeStyle=orthogonalEdgeStyle;rounded=0;orthogonalLoop=1;jettySize=auto;html=1;" edge="1" parent="1" source="youNXtdvEZPTi6tTRyyU-6" target="youNXtdvEZPTi6tTRyyU-16">
          <mxGeometry relative="1" as="geometry" />
        </mxCell>
        <mxCell id="youNXtdvEZPTi6tTRyyU-6" value="Therapist" style="shape=umlActor;verticalLabelPosition=bottom;verticalAlign=top;html=1;" vertex="1" parent="1">
          <mxGeometry x="130" y="630" width="30" height="60" as="geometry" />
        </mxCell>
        <mxCell id="youNXtdvEZPTi6tTRyyU-9" style="edgeStyle=orthogonalEdgeStyle;rounded=0;orthogonalLoop=1;jettySize=auto;html=1;" edge="1" parent="1" source="youNXtdvEZPTi6tTRyyU-7" target="youNXtdvEZPTi6tTRyyU-8">
          <mxGeometry relative="1" as="geometry" />
        </mxCell>
        <mxCell id="youNXtdvEZPTi6tTRyyU-12" style="edgeStyle=orthogonalEdgeStyle;rounded=0;orthogonalLoop=1;jettySize=auto;html=1;" edge="1" parent="1" source="youNXtdvEZPTi6tTRyyU-7" target="youNXtdvEZPTi6tTRyyU-11">
          <mxGeometry relative="1" as="geometry" />
        </mxCell>
        <mxCell id="youNXtdvEZPTi6tTRyyU-14" style="edgeStyle=orthogonalEdgeStyle;rounded=0;orthogonalLoop=1;jettySize=auto;html=1;" edge="1" parent="1" source="youNXtdvEZPTi6tTRyyU-7" target="youNXtdvEZPTi6tTRyyU-13">
          <mxGeometry relative="1" as="geometry" />
        </mxCell>
        <mxCell id="youNXtdvEZPTi6tTRyyU-21" style="edgeStyle=orthogonalEdgeStyle;rounded=0;orthogonalLoop=1;jettySize=auto;html=1;" edge="1" parent="1" source="youNXtdvEZPTi6tTRyyU-7" target="youNXtdvEZPTi6tTRyyU-16">
          <mxGeometry relative="1" as="geometry">
            <Array as="points">
              <mxPoint x="480" y="390" />
              <mxPoint x="480" y="520" />
            </Array>
          </mxGeometry>
        </mxCell>
        <mxCell id="youNXtdvEZPTi6tTRyyU-23" style="edgeStyle=orthogonalEdgeStyle;rounded=0;orthogonalLoop=1;jettySize=auto;html=1;" edge="1" parent="1" source="youNXtdvEZPTi6tTRyyU-7" target="youNXtdvEZPTi6tTRyyU-22">
          <mxGeometry relative="1" as="geometry">
            <Array as="points">
              <mxPoint x="720" y="400" />
            </Array>
          </mxGeometry>
        </mxCell>
        <mxCell id="youNXtdvEZPTi6tTRyyU-25" style="edgeStyle=orthogonalEdgeStyle;rounded=0;orthogonalLoop=1;jettySize=auto;html=1;" edge="1" parent="1" source="youNXtdvEZPTi6tTRyyU-7" target="youNXtdvEZPTi6tTRyyU-24">
          <mxGeometry relative="1" as="geometry">
            <Array as="points">
              <mxPoint x="570" y="390" />
              <mxPoint x="570" y="500" />
              <mxPoint x="535" y="500" />
            </Array>
          </mxGeometry>
        </mxCell>
        <mxCell id="youNXtdvEZPTi6tTRyyU-7" value="NFS" style="shape=umlActor;verticalLabelPosition=bottom;verticalAlign=top;html=1;" vertex="1" parent="1">
          <mxGeometry x="510" y="350" width="30" height="60" as="geometry" />
        </mxCell>
        <mxCell id="youNXtdvEZPTi6tTRyyU-8" value="Use Case 1: User Initiates Session" style="ellipse;whiteSpace=wrap;html=1;" vertex="1" parent="1">
          <mxGeometry x="455" y="100" width="140" height="70" as="geometry" />
        </mxCell>
        <mxCell id="youNXtdvEZPTi6tTRyyU-11" value="Use Case 2: System Calculates Overall Baseline for All EEG Sites" style="ellipse;whiteSpace=wrap;html=1;" vertex="1" parent="1">
          <mxGeometry x="600" y="200" width="160" height="80" as="geometry" />
        </mxCell>
        <mxCell id="youNXtdvEZPTi6tTRyyU-15" value="" style="edgeStyle=orthogonalEdgeStyle;rounded=0;orthogonalLoop=1;jettySize=auto;html=1;" edge="1" parent="1" source="youNXtdvEZPTi6tTRyyU-1" target="youNXtdvEZPTi6tTRyyU-8">
          <mxGeometry relative="1" as="geometry">
            <mxPoint x="260" y="230" as="sourcePoint" />
            <mxPoint x="525" y="170" as="targetPoint" />
          </mxGeometry>
        </mxCell>
        <mxCell id="youNXtdvEZPTi6tTRyyU-13" value="Use Case 3: Treatment Application and Session Completion" style="ellipse;whiteSpace=wrap;html=1;" vertex="1" parent="1">
          <mxGeometry x="280" y="200" width="160" height="80" as="geometry" />
        </mxCell>
        <mxCell id="youNXtdvEZPTi6tTRyyU-16" value="&lt;div&gt;Use Case 4: Comprehensive Data Logging, Review, and Therapy&lt;/div&gt;&lt;div&gt;Planning&lt;/div&gt;" style="ellipse;whiteSpace=wrap;html=1;" vertex="1" parent="1">
          <mxGeometry x="45" y="470" width="200" height="100" as="geometry" />
        </mxCell>
        <mxCell id="youNXtdvEZPTi6tTRyyU-22" value="Use Case 5: Handling Device Disconnection" style="ellipse;whiteSpace=wrap;html=1;" vertex="1" parent="1">
          <mxGeometry x="650" y="480" width="140" height="70" as="geometry" />
        </mxCell>
        <mxCell id="youNXtdvEZPTi6tTRyyU-24" value="Use Case 6: Handling Power Loss or Low Battery" style="ellipse;whiteSpace=wrap;html=1;" vertex="1" parent="1">
          <mxGeometry x="450" y="590" width="170" height="80" as="geometry" />
        </mxCell>
      </root>
    </mxGraphModel>
  </diagram>
</mxfile>
